<svg xmlns="http://www.w3.org/2000/svg" xmlns:xlink="http://www.w3.org/1999/xlink" width="500" zoomAndPan="magnify" viewBox="0 0 375 374.999991" height="500" preserveAspectRatio="xMidYMid meet" version="1.0"><defs><clipPath id="412347949a"><path d="M 135.097656 34.851562 L 237 34.851562 L 237 334 L 135.097656 334 Z M 135.097656 34.851562 " clip-rule="nonzero"/></clipPath></defs><g clip-path="url(#412347949a)"><path fill="#ffffff" d="M 236.023438 331.023438 L 236.027344 330.574219 C 235.710938 328.789062 234.6875 327.234375 232.953125 325.910156 C 212.878906 311.492188 198.101562 299.753906 188.621094 290.691406 C 182.789062 285.371094 176.082031 277.230469 168.503906 266.273438 C 155.875 248.464844 147.996094 224.429688 144.871094 194.160156 C 142.875 173.640625 146.804688 150.753906 156.660156 125.496094 C 162.355469 111.023438 169.554688 97.101562 178.257812 83.730469 C 182.320312 76.800781 192.117188 64.492188 207.640625 46.804688 C 208.308594 45.515625 208.570312 44.414062 208.433594 43.496094 C 208.507812 42.644531 207.542969 40.433594 205.546875 36.867188 C 205.398438 36.152344 205.652344 35.480469 206.304688 34.851562 C 189.066406 49.496094 172.328125 72.886719 156.09375 105.03125 C 143.339844 131.335938 136.597656 156.851562 135.863281 181.582031 C 135.363281 195.769531 137.5 211.578125 142.265625 229.011719 C 148.148438 248.125 155.3125 263.449219 163.75 274.980469 C 173.511719 289.753906 188.003906 304.78125 207.230469 320.054688 C 224.816406 333.417969 234.414062 337.074219 236.023438 331.023438 " fill-opacity="1" fill-rule="nonzero"/></g><path fill="#ffffff" d="M 239.855469 331.769531 L 239.871094 331.519531 C 240.011719 330.546875 239.691406 329.132812 238.910156 327.277344 C 230.914062 310.585938 226.105469 300.1875 224.484375 296.082031 C 223.542969 293.5 222.082031 288.582031 220.113281 281.328125 C 219.734375 280.121094 219.464844 279.34375 219.296875 279 C 218.808594 277.910156 218.296875 277.410156 217.761719 277.496094 C 217.117188 277.355469 216.332031 277.304688 215.40625 277.339844 L 207.464844 278.019531 C 206.894531 278.007812 206.582031 277.894531 206.527344 277.675781 C 206.308594 278.796875 206.324219 280.566406 206.574219 282.992188 C 207.164062 288.117188 208.621094 293.761719 210.949219 299.925781 C 211.722656 302.171875 215.601562 309.605469 222.582031 322.230469 L 195.464844 311.484375 C 191.371094 309.976562 187.09375 308.570312 182.636719 307.265625 C 182.148438 307.128906 181.65625 307.160156 181.167969 307.359375 C 180.898438 307.316406 180.199219 307.878906 179.0625 309.054688 C 177.726562 310.550781 176.777344 312.757812 176.214844 315.671875 C 176.164062 316.753906 176.347656 317.402344 176.769531 317.617188 C 181.96875 320.683594 186.496094 322.984375 190.34375 324.523438 C 197.484375 327.570312 210.214844 331.898438 228.542969 337.507812 C 231.308594 338.386719 233.78125 338.328125 235.960938 337.332031 C 238.632812 335.332031 239.929688 333.480469 239.855469 331.769531 " fill-opacity="1" fill-rule="nonzero"/></svg>