<svg xmlns="http://www.w3.org/2000/svg" xmlns:xlink="http://www.w3.org/1999/xlink" width="500" zoomAndPan="magnify" viewBox="0 0 375 374.999991" height="500" preserveAspectRatio="xMidYMid meet" version="1.0"><defs><clipPath id="e080cff4d0"><path d="M 138 34.851562 L 239.898438 34.851562 L 239.898438 334 L 138 334 Z M 138 34.851562 " clip-rule="nonzero"/></clipPath><clipPath id="5a4a269830"><path d="M 135.097656 277 L 199 277 L 199 339 L 135.097656 339 Z M 135.097656 277 " clip-rule="nonzero"/></clipPath></defs><g clip-path="url(#e080cff4d0)"><path fill="#ffffff" d="M 138.96875 331.023438 L 138.96875 330.574219 C 139.28125 328.789062 140.308594 327.234375 142.042969 325.910156 C 162.117188 311.492188 176.894531 299.753906 186.371094 290.691406 C 192.207031 285.371094 198.914062 277.230469 206.492188 266.273438 C 219.121094 248.464844 227 224.429688 230.125 194.160156 C 232.121094 173.640625 228.1875 150.753906 218.335938 125.496094 C 212.636719 111.023438 205.4375 97.101562 196.738281 83.730469 C 192.671875 76.800781 182.878906 64.492188 167.351562 46.804688 C 166.6875 45.515625 166.421875 44.414062 166.558594 43.496094 C 166.488281 42.644531 167.453125 40.433594 169.449219 36.867188 C 169.59375 36.152344 169.339844 35.480469 168.6875 34.851562 C 185.929688 49.496094 202.664062 72.886719 218.902344 105.03125 C 231.652344 131.335938 238.398438 156.851562 239.128906 181.582031 C 239.628906 195.769531 237.496094 211.578125 232.730469 229.011719 C 226.84375 248.125 219.683594 263.449219 211.246094 274.980469 C 201.484375 289.753906 186.992188 304.78125 167.765625 320.054688 C 150.179688 333.417969 140.578125 337.074219 138.96875 331.023438 " fill-opacity="1" fill-rule="nonzero"/></g><g clip-path="url(#5a4a269830)"><path fill="#ffffff" d="M 135.140625 331.769531 L 135.125 331.519531 C 134.984375 330.546875 135.304688 329.132812 136.085938 327.277344 C 144.082031 310.585938 148.890625 300.1875 150.507812 296.082031 C 151.453125 293.5 152.910156 288.582031 154.882812 281.328125 C 155.261719 280.121094 155.53125 279.34375 155.695312 279 C 156.183594 277.910156 156.695312 277.410156 157.230469 277.496094 C 157.875 277.355469 158.660156 277.304688 159.585938 277.339844 L 167.527344 278.019531 C 168.097656 278.007812 168.410156 277.894531 168.464844 277.675781 C 168.6875 278.796875 168.671875 280.566406 168.417969 282.992188 C 167.832031 288.117188 166.371094 293.761719 164.046875 299.925781 C 163.273438 302.171875 159.394531 309.605469 152.410156 322.230469 L 179.53125 311.484375 C 183.625 309.976562 187.898438 308.570312 192.359375 307.265625 C 192.847656 307.128906 193.335938 307.160156 193.828125 307.359375 C 194.09375 307.316406 194.796875 307.878906 195.933594 309.054688 C 197.265625 310.550781 198.214844 312.757812 198.78125 315.671875 C 198.832031 316.753906 198.648438 317.402344 198.226562 317.617188 C 193.023438 320.683594 188.5 322.984375 184.648438 324.523438 C 177.511719 327.570312 164.777344 331.898438 146.453125 337.507812 C 143.683594 338.386719 141.214844 338.328125 139.035156 337.332031 C 136.363281 335.332031 135.0625 333.480469 135.140625 331.769531 " fill-opacity="1" fill-rule="nonzero"/></g></svg>