<svg xmlns="http://www.w3.org/2000/svg" xmlns:xlink="http://www.w3.org/1999/xlink" width="500" zoomAndPan="magnify" viewBox="0 0 375 374.999991" height="500" preserveAspectRatio="xMidYMid meet" version="1.0"><defs><g/></defs><g fill="#31bdac" fill-opacity="1"><g transform="translate(59.725818, 265.469225)"><g><path d="M 127.773438 -163.785156 C 127.773438 -195.105469 108.667969 -222.347656 73.28125 -222.347656 C 37.582031 -222.347656 18.476562 -195.105469 18.476562 -163.785156 L 18.476562 -55.429688 C 18.476562 -24.113281 37.582031 3.132812 73.28125 3.132812 C 108.667969 3.132812 127.773438 -24.113281 127.773438 -55.429688 Z M 45.410156 -163.785156 C 45.410156 -181.636719 55.117188 -197.296875 73.28125 -197.296875 C 91.132812 -197.296875 100.839844 -181.636719 100.839844 -163.785156 L 100.839844 -55.429688 C 100.839844 -37.582031 91.132812 -21.921875 73.28125 -21.921875 C 55.117188 -21.921875 45.410156 -37.582031 45.410156 -55.429688 Z M 45.410156 -163.785156 "/></g></g></g><g fill="#31bdac" fill-opacity="1"><g transform="translate(206.288223, 265.469225)"><g><path d="M 75.160156 -219.21875 L 53.863281 -219.21875 C 53.863281 -195.105469 41.023438 -184.457031 11.898438 -184.457031 L 11.898438 -165.664062 L 48.542969 -165.664062 L 48.542969 0 L 75.160156 0 Z M 75.160156 -219.21875 "/></g></g></g></svg>