<svg xmlns="http://www.w3.org/2000/svg" xmlns:xlink="http://www.w3.org/1999/xlink" width="500" zoomAndPan="magnify" viewBox="0 0 375 374.999991" height="500" preserveAspectRatio="xMidYMid meet" version="1.0"><defs><g/></defs><g fill="#2c94ee" fill-opacity="1"><g transform="translate(42.509767, 265.683029)"><g><path d="M 127.769531 -163.785156 C 127.769531 -195.101562 108.667969 -222.34375 73.28125 -222.34375 C 37.578125 -222.34375 18.476562 -195.101562 18.476562 -163.785156 L 18.476562 -55.429688 C 18.476562 -24.113281 37.578125 3.132812 73.28125 3.132812 C 108.667969 3.132812 127.769531 -24.113281 127.769531 -55.429688 Z M 45.410156 -163.785156 C 45.410156 -181.632812 55.117188 -197.292969 73.28125 -197.292969 C 91.128906 -197.292969 100.839844 -181.632812 100.839844 -163.785156 L 100.839844 -55.429688 C 100.839844 -37.578125 91.128906 -21.921875 73.28125 -21.921875 C 55.117188 -21.921875 45.410156 -37.578125 45.410156 -55.429688 Z M 45.410156 -163.785156 "/></g></g></g><g fill="#2c94ee" fill-opacity="1"><g transform="translate(189.06956, 265.683029)"><g><path d="M 126.832031 -63.257812 C 126.832031 -83.300781 117.121094 -101.777344 96.140625 -110.234375 C 114.929688 -119 123.699219 -136.539062 123.699219 -155.953125 L 123.699219 -163.785156 C 123.699219 -195.101562 105.222656 -222.34375 70.773438 -222.34375 C 35.386719 -222.34375 16.285156 -195.101562 16.285156 -163.785156 L 16.285156 -154.390625 L 42.902344 -154.390625 L 42.902344 -163.785156 C 42.902344 -181.632812 52.609375 -197.292969 70.773438 -197.292969 C 87.683594 -197.292969 97.082031 -181.632812 97.082031 -163.785156 L 97.082031 -155.953125 C 97.082031 -139.042969 88.9375 -122.132812 66.078125 -122.132812 L 61.378906 -122.132812 L 61.378906 -96.765625 L 66.078125 -96.765625 C 91.445312 -96.765625 100.210938 -80.167969 100.210938 -63.257812 L 100.210938 -55.429688 C 100.210938 -37.578125 90.816406 -21.921875 73.90625 -21.921875 C 53.863281 -21.921875 42.902344 -37.578125 42.902344 -55.429688 L 42.902344 -64.824219 L 16.285156 -64.824219 L 16.285156 -55.429688 C 16.285156 -24.113281 36.328125 3.132812 73.90625 3.132812 C 108.355469 3.132812 126.832031 -24.113281 126.832031 -55.429688 Z M 126.832031 -63.257812 "/></g></g></g></svg>