<svg xmlns="http://www.w3.org/2000/svg" xmlns:xlink="http://www.w3.org/1999/xlink" width="500" zoomAndPan="magnify" viewBox="0 0 375 374.999991" height="500" preserveAspectRatio="xMidYMid meet" version="1.0"><defs><g/></defs><g fill="#f62872" fill-opacity="1"><g transform="translate(43.135088, 265.469217)"><g><path d="M 127.773438 -163.785156 C 127.773438 -195.105469 108.667969 -222.347656 73.28125 -222.347656 C 37.582031 -222.347656 18.476562 -195.105469 18.476562 -163.785156 L 18.476562 -55.429688 C 18.476562 -24.113281 37.582031 3.132812 73.28125 3.132812 C 108.667969 3.132812 127.773438 -24.113281 127.773438 -55.429688 Z M 45.410156 -163.785156 C 45.410156 -181.636719 55.117188 -197.296875 73.28125 -197.296875 C 91.132812 -197.296875 100.839844 -181.636719 100.839844 -163.785156 L 100.839844 -55.429688 C 100.839844 -37.582031 91.132812 -21.921875 73.28125 -21.921875 C 55.117188 -21.921875 45.410156 -37.582031 45.410156 -55.429688 Z M 45.410156 -163.785156 "/></g></g></g><g fill="#f62872" fill-opacity="1"><g transform="translate(189.697493, 265.469217)"><g><path d="M 125.894531 0 L 125.894531 -24.742188 L 46.035156 -24.742188 C 51.671875 -48.855469 65.140625 -62.632812 88 -87.6875 C 108.042969 -109.609375 122.761719 -126.832031 122.761719 -160.34375 C 122.761719 -199.175781 103.03125 -222.347656 69.523438 -222.347656 C 33.820312 -222.347656 15.34375 -195.417969 15.34375 -163.785156 L 15.34375 -154.390625 L 41.964844 -154.390625 L 41.964844 -163.785156 C 41.964844 -182.265625 49.792969 -197.296875 69.210938 -197.296875 C 88.3125 -197.296875 96.144531 -182.890625 96.144531 -161.28125 C 96.144531 -137.480469 87.0625 -123.386719 70.777344 -106.164062 C 33.507812 -67.019531 15.03125 -47.289062 15.34375 0 Z M 125.894531 0 "/></g></g></g></svg>