<svg xmlns="http://www.w3.org/2000/svg" xmlns:xlink="http://www.w3.org/1999/xlink" width="500" zoomAndPan="magnify" viewBox="0 0 375 374.999991" height="500" preserveAspectRatio="xMidYMid meet" version="1.0"><defs><g/></defs><g fill="#f57b2c" fill-opacity="1"><g transform="translate(39.064455, 265.683029)"><g><path d="M 127.769531 -163.785156 C 127.769531 -195.101562 108.667969 -222.34375 73.28125 -222.34375 C 37.578125 -222.34375 18.476562 -195.101562 18.476562 -163.785156 L 18.476562 -55.429688 C 18.476562 -24.113281 37.578125 3.132812 73.28125 3.132812 C 108.667969 3.132812 127.769531 -24.113281 127.769531 -55.429688 Z M 45.410156 -163.785156 C 45.410156 -181.632812 55.117188 -197.292969 73.28125 -197.292969 C 91.128906 -197.292969 100.839844 -181.632812 100.839844 -163.785156 L 100.839844 -55.429688 C 100.839844 -37.578125 91.128906 -21.921875 73.28125 -21.921875 C 55.117188 -21.921875 45.410156 -37.578125 45.410156 -55.429688 Z M 45.410156 -163.785156 "/></g></g></g><g fill="#f57b2c" fill-opacity="1"><g transform="translate(185.624248, 265.683029)"><g><path d="M 119 0 L 119 -57.933594 L 141.550781 -57.933594 L 141.550781 -82.988281 L 119 -82.988281 L 119 -156.269531 L 92.382812 -151.882812 L 92.382812 -82.988281 L 36.640625 -82.988281 L 81.421875 -219.214844 L 55.117188 -219.214844 L 10.019531 -82.988281 L 10.019531 -57.933594 L 92.382812 -57.933594 L 92.382812 0 Z M 119 0 "/></g></g></g></svg>