<svg xmlns="http://www.w3.org/2000/svg" xmlns:xlink="http://www.w3.org/1999/xlink" width="500" zoomAndPan="magnify" viewBox="0 0 375 374.999991" height="500" preserveAspectRatio="xMidYMid meet" version="1.0"><defs><clipPath id="89ecd70df3"><path d="M 28.742188 73.390625 L 173 73.390625 L 173 296 L 28.742188 296 Z M 28.742188 73.390625 " clip-rule="nonzero"/></clipPath><clipPath id="f667ded69e"><path d="M 186 73.390625 L 331 73.390625 L 331 296 L 186 296 Z M 186 73.390625 " clip-rule="nonzero"/></clipPath></defs><g clip-path="url(#89ecd70df3)"><path fill="#1b978d" d="M 28.855469 203.113281 C 30.53125 155.066406 56.46875 115.847656 104.90625 91.152344 C 123.113281 81.867188 142.617188 76.636719 162.789062 73.75 C 163.917969 73.589844 165.054688 73.496094 166.195312 73.476562 C 169.554688 73.414062 171.730469 75.074219 172.625 78.265625 C 173.535156 81.527344 172.296875 84.054688 169.421875 85.609375 C 166.203125 87.355469 162.792969 88.75 159.546875 90.457031 C 148.609375 96.214844 138.4375 103.011719 130.433594 112.625 C 125.574219 118.460938 121.980469 124.949219 120.726562 132.53125 C 119.480469 140.078125 120.367188 147.417969 125.257812 153.421875 C 127.675781 156.394531 131.234375 159.15625 134.828125 160.320312 C 144.382812 163.410156 152.207031 168.683594 157.972656 176.714844 C 189.234375 220.261719 170.144531 283.304688 113.746094 294.492188 C 79.996094 301.1875 48.527344 282.695312 35.589844 248.832031 C 31.171875 237.273438 28.808594 223.597656 28.855469 203.113281 Z M 28.855469 203.113281 " fill-opacity="1" fill-rule="nonzero"/></g><g clip-path="url(#f667ded69e)"><path fill="#1b978d" d="M 186.007812 203.585938 C 187.460938 156.695312 212.152344 117.957031 258.628906 92.886719 C 277.878906 82.503906 298.660156 76.648438 320.28125 73.824219 C 322.785156 73.496094 326.042969 74.015625 327.988281 75.445312 C 331.574219 78.089844 330.417969 83.578125 326.242188 85.785156 C 320.988281 88.5625 315.566406 91.039062 310.421875 93.996094 C 301.25 99.269531 292.914062 105.636719 286.410156 114.105469 C 280.277344 122.085938 276.367188 130.914062 277.710938 141.214844 C 279 151.140625 283.628906 158.429688 294.078125 161.238281 C 302.695312 163.550781 309.433594 169.046875 314.65625 176.113281 C 345.9375 218.441406 328.621094 282.722656 271.261719 294.394531 C 236.796875 301.410156 204.773438 282.246094 192.199219 247.425781 C 187.808594 235.269531 186 222.683594 186.007812 203.585938 Z M 186.007812 203.585938 " fill-opacity="1" fill-rule="nonzero"/></g></svg>